<?xml version="1.0" encoding="UTF-8"?>
<svg width="723px" height="792px" viewBox="0 0 723 792" version="1.1" xmlns="http://www.w3.org/2000/svg" xmlns:xlink="http://www.w3.org/1999/xlink">
    <!-- Generator: Sketch 53.2 (72643) - https://sketchapp.com -->
    <title>Untitled</title>
    <desc>Created with Sketch.</desc>
    <g id="Page-1" stroke="none" stroke-width="1" fill="none" fill-rule="evenodd">
        <g id="Group-4" transform="translate(7.000000, 0.000000)">
            <path d="M354.000714,223.275961 C357.288093,217.256533 395.662643,151.311479 496.270192,155.162168 C659.711993,161.418102 704.406571,275.419843 707.76509,380.139289 C712.5992,530.816716 642.751874,780.513329 504.908023,791.586872 C443.900475,796.487718 359.026445,756.215529 354.000714,753.800066 C348.973837,756.215529 264.099807,796.487718 203.092259,791.586872 C65.248063,780.513329 -4.59857416,530.816716 0.234847467,380.139289 C3.59405484,275.419843 48.2878294,161.418102 211.730089,155.162168 C312.337639,151.311479 350.712189,217.256533 354.000714,223.275961 Z M351.891744,262.3523 L407.77144,433.858348 L588.604793,433.858348 L442.307846,539.855616 L498.18869,711.361665 L351.891744,605.364396 L205.594797,711.361665 L261.474494,539.855616 L115.177547,433.858348 L296.0109,433.858348 L351.891744,262.3523 Z" id="Fill-1" fill="#16CFDF"></path>
            <path d="M346,225 C346,225 347.798713,186.921097 369.47734,144.369682 C392.25722,99.6583309 425,73 425,73" id="Stroke-2" stroke="#16CFDF" stroke-width="43" stroke-linecap="square" stroke-linejoin="round"></path>
            <path d="M217.011646,0 C217.011646,0 281.186596,7.71896693 307.672823,50.2163917 C334.157905,92.7138165 312.988854,154 312.988854,154 C312.988854,154 248.812759,146.281033 222.327677,103.783608 C195.84145,61.2861835 217.011646,0 217.011646,0 Z" id="Fill-3" fill="#16CFDF"></path>
        </g>
    </g>
</svg>